HIERARCHY
ROOT Hips
{
  OFFSET -24.5077 92.419 -73.7383
  CHANNELS 6 Xposition Yposition Zposition Zrotation Xrotation Yrotation
  JOINT LeftUpLeg
  {
    OFFSET 9.63379 -0.250344 0
    CHANNELS 6 Xposition Yposition Zposition Zrotation Xrotation Yrotation
    JOINT LeftLeg
    {
      OFFSET 0 -40.4779 -1.71313
      CHANNELS 6 Xposition Yposition Zposition Zrotation Xrotation Yrotation
      JOINT LeftFoot
      {
        OFFSET 0.0126047 -40.4416 -0.864524
        CHANNELS 6 Xposition Yposition Zposition Zrotation Xrotation Yrotation
        JOINT LeftToeBase
        {
          OFFSET -0.183287 -12.1867 8.28226
          CHANNELS 6 Xposition Yposition Zposition Zrotation Xrotation Yrotation
          End Site
          {
            OFFSET 0 0 9.15615
          }
        }
      }
    }
  }
  JOINT RightUpLeg
  {
    OFFSET -9.63379 -0.250344 0
    CHANNELS 6 Xposition Yposition Zposition Zrotation Xrotation Yrotation
    JOINT RightLeg
    {
      OFFSET 0 -40.478 -1.71313
      CHANNELS 6 Xposition Yposition Zposition Zrotation Xrotation Yrotation
      JOINT RightFoot
      {
        OFFSET -0.0126047 -40.4414 -0.864524
        CHANNELS 6 Xposition Yposition Zposition Zrotation Xrotation Yrotation
        JOINT RightToeBase
        {
          OFFSET 0.183287 -12.1867 8.28226
          CHANNELS 6 Xposition Yposition Zposition Zrotation Xrotation Yrotation
          End Site
          {
            OFFSET 0.00319481 0 9.156
          }
        }
      }
    }
  }
  JOINT Spine
  {
    OFFSET 0 5.60909 -1.89659
    CHANNELS 6 Xposition Yposition Zposition Zrotation Xrotation Yrotation
    JOINT Spine1
    {
      OFFSET 0 6.56349 1.09934
      CHANNELS 6 Xposition Yposition Zposition Zrotation Xrotation Yrotation
      JOINT Spine2
      {
        OFFSET 0 7.57662 1.04304
        CHANNELS 6 Xposition Yposition Zposition Zrotation Xrotation Yrotation
        JOINT Spine3
        {
          OFFSET 0 8.29213 0.399731
          CHANNELS 6 Xposition Yposition Zposition Zrotation Xrotation Yrotation
          JOINT Spine4
          {
            OFFSET 0 8.9581 -0.526302
            CHANNELS 6 Xposition Yposition Zposition Zrotation Xrotation Yrotation
            JOINT Neck
            {
              OFFSET 0 18.4163 -4.35419
              CHANNELS 6 Xposition Yposition Zposition Zrotation Xrotation Yrotation
              JOINT Head
              {
                OFFSET 0 8.97127 1.78542
                CHANNELS 6 Xposition Yposition Zposition Zrotation Xrotation Yrotation
                End Site
                {
                  OFFSET 0 19.3737 0.971395
                }
              }
            }
            JOINT LeftShoulder
            {
              OFFSET 6.14423 15.3316 -3.79324
              CHANNELS 6 Xposition Yposition Zposition Zrotation Xrotation Yrotation
              JOINT LeftArm
              {
                OFFSET 9.01906 -1.11411 -1.79347
                CHANNELS 6 Xposition Yposition Zposition Zrotation Xrotation Yrotation
                JOINT LeftForeArm
                {
                  OFFSET 27.687 0 0
                  CHANNELS 6 Xposition Yposition Zposition Zrotation Xrotation Yrotation
                  JOINT LeftHand
                  {
                    OFFSET 27.8738 0 0
                    CHANNELS 6 Xposition Yposition Zposition Zrotation Xrotation Yrotation
                    End Site
                    {
                      OFFSET 5 0 0
                    }
                  }
                }
              }
            }
            JOINT RightShoulder
            {
              OFFSET -6.14423 15.3316 -3.79324
              CHANNELS 6 Xposition Yposition Zposition Zrotation Xrotation Yrotation
              JOINT RightArm
              {
                OFFSET -9.01884 -1.11411 -1.79347
                CHANNELS 6 Xposition Yposition Zposition Zrotation Xrotation Yrotation
                JOINT RightForeArm
                {
                  OFFSET -27.0381 0.00109999 0
                  CHANNELS 6 Xposition Yposition Zposition Zrotation Xrotation Yrotation
                  JOINT RightHand
                  {
                    OFFSET -28.5227 0 0
                    CHANNELS 6 Xposition Yposition Zposition Zrotation Xrotation Yrotation
                    End Site
                    {
                      OFFSET -5 0 0
                    }
                  }
                }
              }
            }
          }
        }
      }
    }
  }
}
MOTION
Frames:	7
Frame Time:	0.00833333
-27.0537 93.1993 4.49697 0.720157 3.23004 5.51999 9.63379 -0.250344 -7.15256e-007 0.539959 -4.56522 10.3632 0 -40.4779 -1.71313 -1.24598 3.14685 -0.0214979 0.0126047 -40.4416 -0.864524 -0.0233016 -1.61239 -0.00516819 -0.183287 -12.1867 8.28226 2.77363e-011 3.82565e-011 9.42414e-011 -9.63379 -0.250344 -7.15256e-007 -2.5433 -6.98904 4.03196 0 -40.478 -1.71313 0.942899 5.59771 -1.16136 -0.0126047 -40.4414 -0.864524 0.0435479 -2.97119 0.00358137 0.183287 -12.1867 8.28226 -2.7657e-012 2.5582e-011 3.69612e-011 -2.64698e-023 5.60909 -1.89659 0.254489 -0.0315665 -0.51435 0 6.56349 1.09934 0.112415 -0.0619115 -1.0542 0 7.57662 1.04304 0.112429 -0.0617327 -1.0542 0 8.29213 0.399731 0.112439 -0.0615536 -1.05421 0 8.9581 -0.526302 0.112445 -0.0613744 -1.05422 0 18.4163 -4.35419 -6.03362 16.3489 1.5627 1.05879e-022 8.97127 1.78542 3.61707 -12.5107 -1.48076 6.14423 15.3316 -3.79324 -26.2525 2.01247 -2.70122 9.01906 -1.11411 -1.79347 -53.7294 15.1001 -8.76019 27.687 0 0 -6.4742 19.2015 -11.6164 27.8738 0 0 13.1452 -0.177847 3.61001 -6.14423 15.3316 -3.79324 26.0574 7.01292 18.0337 -9.01884 -1.11411 -1.79347 57.2175 19.422 1.20961 -27.0381 0.00109999 5.96046e-008 -7.37915 -1.2757 1.78846 -28.5227 0 0 -6.85813 -2.67343 -7.78228 
-27.0462 93.1974 4.51131 0.705869 3.21732 5.53234 9.63379 -0.250344 -7.15256e-007 0.561203 -4.55982 10.3924 0 -40.4779 -1.71313 -1.25948 3.17923 -0.0214833 0.0126047 -40.4416 -0.864524 -0.0233113 -1.63067 -0.00516824 -0.183287 -12.1867 8.28226 2.77363e-011 3.82565e-011 9.42414e-011 -9.63379 -0.250344 -7.15256e-007 -2.53124 -6.95336 4.00965 0 -40.478 -1.71313 0.941889 5.56465 -1.16085 -0.0126047 -40.4414 -0.864524 0.0434163 -2.96333 0.00356448 0.183287 -12.1867 8.28226 -2.7657e-012 2.5582e-011 3.69612e-011 -2.64698e-023 5.60909 -1.89659 0.249745 -0.0288334 -0.514048 0 6.56349 1.09934 0.113715 -0.0564208 -1.05311 0 7.57662 1.04304 0.113729 -0.0562457 -1.05312 0 8.29213 0.399731 0.113739 -0.0560704 -1.05313 0 8.9581 -0.526302 0.113746 -0.0558949 -1.05314 0 18.4163 -4.35419 -5.99477 16.2529 1.55213 1.05879e-022 8.97127 1.78542 3.57788 -12.4906 -1.46576 6.14423 15.3316 -3.79324 -26.2488 2.02041 -2.72636 9.01906 -1.11411 -1.79347 -53.7338 15.0713 -8.78754 27.687 0 0 -6.41197 19.4169 -11.6309 27.8738 0 0 13.0286 -0.185852 3.66859 -6.14423 15.3316 -3.79324 26.077 7.00965 18.0116 -9.01884 -1.11411 -1.79347 57.1988 19.3792 1.23142 -27.0381 0.00109999 5.96046e-008 -7.38878 -1.25519 1.7886 -28.5227 0 0 -6.85139 -2.67063 -7.77735 
-27.0389 93.1957 4.52546 0.69202 3.20462 5.54363 9.63379 -0.250344 -7.15256e-007 0.581156 -4.55331 10.4206 0 -40.4779 -1.71313 -1.27281 3.20889 -0.0214687 0.0126047 -40.4416 -0.864524 -0.0233206 -1.64745 -0.00516828 -0.183287 -12.1867 8.28226 2.77363e-011 3.82565e-011 9.42414e-011 -9.63379 -0.250344 -7.15256e-007 -2.51919 -6.9183 3.98922 0 -40.478 -1.71313 0.940853 5.53214 -1.16029 -0.0126047 -40.4414 -0.864524 0.0432856 -2.95475 0.00354757 0.183287 -12.1867 8.28226 -2.7657e-012 2.5582e-011 3.69612e-011 -2.64698e-023 5.60909 -1.89659 0.245064 -0.027228 -0.513875 0 6.56349 1.09934 0.114602 -0.0531578 -1.0523 0 7.57662 1.04304 0.114616 -0.0529862 -1.05231 0 8.29213 0.399731 0.114627 -0.0528145 -1.05231 0 8.9581 -0.526302 0.114635 -0.0526426 -1.05232 0 18.4163 -4.35419 -5.95672 16.1805 1.54765 1.05879e-022 8.97127 1.78542 3.53913 -12.4847 -1.44556 6.14423 15.3316 -3.79324 -26.2449 2.02685 -2.74689 9.01906 -1.11411 -1.79347 -53.7395 15.0435 -8.8044 27.687 0 0 -6.34753 19.6366 -11.6512 27.8738 0 0 12.9115 -0.193901 3.72754 -6.14423 15.3316 -3.79324 26.0988 7.00825 17.9937 -9.01884 -1.11411 -1.79347 57.1847 19.3292 1.24122 -27.0381 0.00109999 5.96046e-008 -7.39703 -1.22634 1.78825 -28.5227 0 0 -6.84728 -2.66984 -7.77759 
-27.0293 93.1946 4.53908 0.68184 3.20097 5.54977 9.63379 -0.250344 -7.15256e-007 0.591868 -4.55005 10.4375 0 -40.4779 -1.71313 -1.28168 3.22759 -0.0214539 0.0126047 -40.4416 -0.864524 -0.0233294 -1.66016 -0.00516831 -0.183287 -12.1867 8.28226 2.77363e-011 3.82565e-011 9.42414e-011 -9.63379 -0.250344 -7.15256e-007 -2.51154 -6.89636 3.98616 0 -40.478 -1.71313 0.939986 5.50898 -1.15972 -0.0126047 -40.4414 -0.864524 0.0431561 -2.94741 0.00353065 0.183287 -12.1867 8.28226 -2.7657e-012 2.5582e-011 3.69612e-011 -2.64698e-023 5.60909 -1.89659 0.24178 -0.0299928 -0.514985 0 6.56349 1.09934 0.114856 -0.0585635 -1.05422 0 7.57662 1.04304 0.114871 -0.058394 -1.05423 0 8.29213 0.399731 0.114883 -0.0582243 -1.05424 0 8.9581 -0.526302 0.114892 -0.0580544 -1.05425 0 18.4163 -4.35419 -5.94063 16.1638 1.56689 1.05879e-022 8.97127 1.78542 3.51863 -12.5036 -1.41454 6.14423 15.3316 -3.79324 -26.2458 2.02488 -2.7407 9.01906 -1.11411 -1.79347 -53.7487 15.0346 -8.79142 27.687 0 0 -6.30017 19.8038 -11.6817 27.8738 0 0 12.8267 -0.199476 3.76619 -6.14423 15.3316 -3.79324 26.111 7.01395 18.0031 -9.01884 -1.11411 -1.79347 57.1925 19.2831 1.21353 -27.0381 0.00109999 5.96046e-008 -7.39652 -1.2062 1.78727 -28.5227 0 0 -6.84925 -2.67176 -7.78292 
-27.0158 93.1946 4.55195 0.676713 3.2114 5.54908 9.63379 -0.250344 -7.15256e-007 0.589306 -4.55253 10.4386 0 -40.4779 -1.71313 -1.28442 3.23088 -0.0214388 0.0126047 -40.4416 -0.864524 -0.0233375 -1.66825 -0.00516833 -0.183287 -12.1867 8.28226 2.77363e-011 3.82565e-011 9.42414e-011 -9.63379 -0.250344 -7.15256e-007 -2.50993 -6.89405 4.01058 0 -40.478 -1.71313 0.939378 5.49891 -1.15917 -0.0126047 -40.4414 -0.864524 0.0430276 -2.94215 0.00351373 0.183287 -12.1867 8.28226 -2.7657e-012 2.5582e-011 3.69612e-011 -2.64698e-023 5.60909 -1.89659 0.240581 -0.0406485 -0.518622 0 6.56349 1.09934 0.114426 -0.0796122 -1.06145 0 7.57662 1.04304 0.114444 -0.0794423 -1.06147 0 8.29213 0.399731 0.114459 -0.0792722 -1.06148 0 8.9581 -0.526302 0.11447 -0.0791018 -1.06149 0 18.4163 -4.35419 -5.96642 16.2527 1.62422 1.05879e-022 8.97127 1.78542 3.53253 -12.5691 -1.3702 6.14423 15.3316 -3.79324 -26.2546 2.00808 -2.6874 9.01906 -1.11411 -1.79347 -53.7659 15.0551 -8.72218 27.687 0 0 -6.27454 19.9137 -11.7314 27.8738 0 0 12.7796 -0.201921 3.77704 -6.14423 15.3316 -3.79324 26.1079 7.03324 18.0629 -9.01884 -1.11411 -1.79347 57.2395 19.2397 1.1159 -27.0381 0.00109999 5.96046e-008 -7.38267 -1.20103 1.785 -28.5227 0 0 -6.86213 -2.67785 -7.79489 
-27.0002 93.1954 4.5643 0.674741 3.23021 5.54394 9.63379 -0.250344 -7.15256e-007 0.578348 -4.55799 10.4298 0 -40.4779 -1.71313 -1.28349 3.22392 -0.0214236 0.0126047 -40.4416 -0.864524 -0.0233452 -1.67305 -0.00516835 -0.183287 -12.1867 8.28226 2.77363e-011 3.82565e-011 9.42414e-011 -9.63379 -0.250344 -7.15256e-007 -2.51184 -6.90364 4.05223 0 -40.478 -1.71313 0.938942 5.4968 -1.15865 -0.0126047 -40.4414 -0.864524 0.0429002 -2.9378 0.0034968 0.183287 -12.1867 8.28226 -2.7657e-012 2.5582e-011 3.69612e-011 -2.64698e-023 5.60909 -1.89659 0.240641 -0.0565804 -0.523858 0 6.56349 1.09934 0.113418 -0.111116 -1.07204 0 7.57662 1.04304 0.11344 -0.110944 -1.07205 0 8.29213 0.399731 0.113458 -0.110772 -1.07207 0 8.9581 -0.526302 0.113474 -0.1106 -1.07209 0 18.4163 -4.35419 -6.01844 16.4163 1.70714 1.05879e-022 8.97127 1.78542 3.56766 -12.6693 -1.31585 6.14423 15.3316 -3.79324 -26.2681 1.98165 -2.60362 9.01906 -1.11411 -1.79347 -53.7886 15.0937 -8.61406 27.687 0 0 -6.26047 19.9931 -11.7953 27.8738 0 0 12.7537 -0.202577 3.7718 -6.14423 15.3316 -3.79324 26.0967 7.0616 18.1551 -9.01884 -1.11411 -1.79347 57.3121 19.1943 0.970544 -27.0381 0.00109999 5.96046e-008 -7.3603 -1.20117 1.78173 -28.5227 0 0 -6.88279 -2.68731 -7.81303 
-26.9845 93.1961 4.57644 0.674232 3.25038 5.53635 9.63379 -0.250344 -7.15256e-007 0.56442 -4.5629 10.4172 0 -40.4779 -1.71313 -1.28082 3.21285 -0.0214084 0.0126047 -40.4416 -0.864524 -0.0233525 -1.67481 -0.00516835 -0.183287 -12.1867 8.28226 2.77363e-011 3.82565e-011 9.42414e-011 -9.63379 -0.250344 -7.15256e-007 -2.51553 -6.91627 4.09605 0 -40.478 -1.71313 0.938598 5.49802 -1.15816 -0.0126047 -40.4414 -0.864524 0.0427738 -2.9334 0.00347986 0.183287 -12.1867 8.28226 -2.7657e-012 2.5582e-011 3.69612e-011 -2.64698e-023 5.60909 -1.89659 0.241032 -0.0718281 -0.52859 0 6.56349 1.09934 0.111853 -0.141274 -1.08166 0 7.57662 1.04304 0.111879 -0.1411 -1.08168 0 8.29213 0.399731 0.111901 -0.140926 -1.0817 0 8.9581 -0.526302 0.111919 -0.140751 -1.08173 0 18.4163 -4.35419 -6.06411 16.5652 1.79283 1.05879e-022 8.97127 1.78542 3.59788 -12.7638 -1.25455 6.14423 15.3316 -3.79324 -26.2815 1.95615 -2.52276 9.01906 -1.11411 -1.79347 -53.8089 15.1347 -8.51341 27.687 0 0 -6.25522 20.0328 -11.8565 27.8738 0 0 12.7496 -0.20191 3.75852 -6.14423 15.3316 -3.79324 26.0845 7.08775 18.2413 -9.01884 -1.11411 -1.79347 57.381 19.1531 0.833909 -27.0381 0.00109999 5.96046e-008 -7.33608 -1.19977 1.77871 -28.5227 0 0 -6.90271 -2.69747 -7.83419 
